<svg width="40" height="40" viewBox="0 0 40 40" fill="none" xmlns="http://www.w3.org/2000/svg">
<rect x="0.5" y="0.5" width="39" height="39" rx="7.5" fill="white"/>
<rect x="0.5" y="0.5" width="39" height="39" rx="7.5" stroke="#EFF2F5"/>
<path d="M15.7833 14.1668C15.7831 14.6088 15.6073 15.0326 15.2945 15.345C14.9818 15.6574 14.5578 15.8328 14.1158 15.8326C13.6738 15.8324 13.2499 15.6566 12.9375 15.3439C12.6251 15.0311 12.4497 14.6071 12.45 14.1651C12.4502 13.7231 12.626 13.2992 12.9387 12.9868C13.2514 12.6744 13.6754 12.499 14.1175 12.4993C14.5595 12.4995 14.9833 12.6753 15.2957 12.988C15.6081 13.3007 15.7835 13.7247 15.7833 14.1668ZM15.8333 17.0668H12.5V27.5001H15.8333V17.0668ZM21.1 17.0668H17.7833V27.5001H21.0666V22.0251C21.0666 18.9751 25.0416 18.6918 25.0416 22.0251V27.5001H28.3333V20.8918C28.3333 15.7501 22.45 15.9418 21.0666 18.4668L21.1 17.0668Z" fill="#1E2225"/>
</svg>
