<svg width="40" height="40" viewBox="0 0 40 40" fill="none" xmlns="http://www.w3.org/2000/svg">
<rect x="0.5" y="0.5" width="39" height="39" rx="7.5" fill="white"/>
<rect x="0.5" y="0.5" width="39" height="39" rx="7.5" stroke="#EFF2F5"/>
<path d="M28.5109 14.7133C27.8747 14.9947 27.2001 15.1795 26.5093 15.2616C27.2368 14.8259 27.7812 14.1406 28.0409 13.3333C27.3576 13.7399 26.6084 14.0249 25.8284 14.1791C25.3039 13.6179 24.6087 13.2457 23.8509 13.1204C23.0931 12.9951 22.3151 13.1237 21.6378 13.4861C20.9606 13.8486 20.4221 14.4247 20.106 15.1248C19.79 15.8249 19.7141 16.6098 19.8901 17.3574C18.5042 17.2881 17.1484 16.928 15.9107 16.3007C14.673 15.6733 13.5811 14.7926 12.7059 13.7158C12.3962 14.2478 12.2334 14.8526 12.2343 15.4683C12.2343 16.6766 12.8501 17.7441 13.7843 18.3691C13.2309 18.3517 12.6898 18.2022 12.2059 17.9333V17.9758C12.2059 18.7807 12.4843 19.5608 12.9939 20.1838C13.5035 20.8069 14.2129 21.2345 15.0018 21.3941C14.4881 21.5334 13.9495 21.554 13.4268 21.4541C13.6492 22.1469 14.0828 22.7528 14.6668 23.1869C15.2508 23.621 15.9559 23.8616 16.6834 23.8749C15.9604 24.4428 15.1325 24.8626 14.2471 25.1102C13.3617 25.3579 12.4362 25.4286 11.5234 25.3183C13.1165 26.3428 14.971 26.8867 16.8651 26.8849C23.2768 26.8849 26.7818 21.5741 26.7818 16.9683C26.7818 16.8183 26.7784 16.6666 26.7718 16.5174C27.4538 16.0244 28.0424 15.4137 28.5101 14.7141" fill="#1E2225"/>
</svg>
