<svg width="40" height="40" viewBox="0 0 40 40" fill="none" xmlns="http://www.w3.org/2000/svg">
<rect x="0.5" y="0.5" width="39" height="39" rx="7.5" fill="white"/>
<rect x="0.5" y="0.5" width="39" height="39" rx="7.5" stroke="#EFF2F5"/>
<path d="M12.5001 12.5H27.5001C27.7211 12.5 27.9331 12.5878 28.0893 12.7441C28.2456 12.9004 28.3334 13.1123 28.3334 13.3333V26.6667C28.3334 26.8877 28.2456 27.0996 28.0893 27.2559C27.9331 27.4122 27.7211 27.5 27.5001 27.5H12.5001C12.2791 27.5 12.0671 27.4122 11.9108 27.2559C11.7545 27.0996 11.6667 26.8877 11.6667 26.6667V13.3333C11.6667 13.1123 11.7545 12.9004 11.9108 12.7441C12.0671 12.5878 12.2791 12.5 12.5001 12.5ZM20.0501 19.7358L14.7067 15.1983L13.6276 16.4683L20.0609 21.9308L26.3784 16.4642L25.2884 15.2033L20.0501 19.7358Z" fill="#1E2225"/>
</svg>
