<svg width="40" height="40" viewBox="0 0 40 40" fill="none" xmlns="http://www.w3.org/2000/svg">
<rect x="0.5" y="0.5" width="39" height="39" rx="7.5" fill="white"/>
<rect x="0.5" y="0.5" width="39" height="39" rx="7.5" stroke="#EFF2F5"/>
<path d="M20.0008 11.6667C24.6033 11.6667 28.3342 15.3976 28.3342 20.0001C28.3342 24.6026 24.6033 28.3334 20.0008 28.3334C18.5281 28.3358 17.0814 27.9461 15.8092 27.2042L11.6708 28.3334L12.7975 24.1934C12.0551 22.9208 11.665 21.4734 11.6675 20.0001C11.6675 15.3976 15.3983 11.6667 20.0008 11.6667ZM17.1608 16.0834L16.9942 16.0901C16.8863 16.0967 16.7808 16.125 16.6842 16.1734C16.5938 16.2246 16.5112 16.2886 16.4392 16.3634C16.3392 16.4576 16.2825 16.5392 16.2217 16.6184C15.9134 17.0192 15.7475 17.5112 15.75 18.0167C15.7517 18.4251 15.8583 18.8226 16.025 19.1942C16.3658 19.9459 16.9267 20.7417 17.6667 21.4792C17.845 21.6567 18.02 21.8351 18.2083 22.0009C19.1278 22.8105 20.2235 23.3943 21.4083 23.7059L21.8817 23.7784C22.0358 23.7867 22.19 23.7751 22.345 23.7676C22.5877 23.7551 22.8247 23.6893 23.0392 23.5751C23.1483 23.5189 23.2548 23.4577 23.3583 23.3917C23.3583 23.3917 23.3942 23.3684 23.4625 23.3167C23.575 23.2334 23.6442 23.1742 23.7375 23.0767C23.8067 23.0051 23.8667 22.9209 23.9125 22.8251C23.9775 22.6892 24.0425 22.4301 24.0692 22.2142C24.0892 22.0492 24.0833 21.9592 24.0808 21.9034C24.0775 21.8142 24.0033 21.7217 23.9225 21.6826L23.4375 21.4651C23.4375 21.4651 22.7125 21.1492 22.2692 20.9476C22.2228 20.9273 22.1731 20.9157 22.1225 20.9134C22.0655 20.9076 22.0079 20.914 21.9535 20.9322C21.8992 20.9505 21.8494 20.9802 21.8075 21.0192C21.8033 21.0176 21.7475 21.0651 21.145 21.7951C21.1104 21.8415 21.0628 21.8767 21.0082 21.896C20.9535 21.9153 20.8944 21.9178 20.8383 21.9034C20.784 21.8889 20.7309 21.8705 20.6792 21.8484C20.5758 21.8051 20.54 21.7884 20.4692 21.7584C19.9909 21.5497 19.5481 21.2677 19.1567 20.9226C19.0517 20.8309 18.9542 20.7309 18.8542 20.6342C18.5263 20.3203 18.2406 19.9651 18.0042 19.5776L17.955 19.4984C17.9197 19.4452 17.8911 19.3878 17.87 19.3276C17.8383 19.2051 17.9208 19.1067 17.9208 19.1067C17.9208 19.1067 18.1233 18.8851 18.2175 18.7651C18.3092 18.6484 18.3867 18.5351 18.4367 18.4542C18.535 18.2959 18.5658 18.1334 18.5142 18.0076C18.2808 17.4376 18.0392 16.8701 17.7908 16.3067C17.7417 16.1951 17.5958 16.1151 17.4633 16.0992C17.4183 16.0942 17.3733 16.0892 17.3283 16.0859C17.2164 16.0804 17.1043 16.0815 16.9925 16.0892L17.1608 16.0834Z" fill="#1E2225"/>
</svg>
